<?xml version="1.0" encoding="utf-8"?>
<!-- Generator: Adobe Illustrator 16.0.0, SVG Export Plug-In . SVG Version: 6.00 Build 0)  -->
<!DOCTYPE svg PUBLIC "-//W3C//DTD SVG 1.1//EN" "http://www.w3.org/Graphics/SVG/1.1/DTD/svg11.dtd">
<svg version="1.1" id="Layer_3" xmlns="http://www.w3.org/2000/svg" xmlns:xlink="http://www.w3.org/1999/xlink" x="0px" y="0px"
	 width="293.868px" height="45.807px" viewBox="0 0 293.868 45.807" enable-background="new 0 0 293.868 45.807"
	 xml:space="preserve">
<path fill="#FFFFFF" d="M25.26,32.285c-2.568,1.826-4.936,1.564-6.07,1.564c-7.688,0-7.771-5.545-7.771-6.006
	c0-8.864,14.325-6.134,14.325-9.83c0-1.387-1.47-1.681-2.604-1.681c-2.94,0-6.049,0.966-8.78,1.975l0.84-5.125
	c3.318-0.757,6.679-1.302,9.914-1.302c6.637,0,8.822,2.227,8.822,5.713c0,1.05-0.714,11.552-0.714,15.752h-8.065
	c0.027-0.248,0.053-0.496,0.077-0.746L25.26,32.285z M25.672,26.146c0.038-0.724,0.075-1.446,0.113-2.167
	c-1.554,1.092-6.385,1.26-6.385,3.738c0,1.303,1.176,1.681,2.311,1.681c0.756,0,3.502-0.231,3.94-2.972L25.672,26.146z
	 M99.107,32.285c-2.568,1.826-4.936,1.564-6.07,1.564c-7.688,0-7.771-5.545-7.771-6.006c0-8.864,14.325-6.134,14.325-9.83
	c0-1.387-1.47-1.681-2.604-1.681c-2.94,0-6.049,0.966-8.78,1.975l0.84-5.125c3.318-0.757,6.679-1.302,9.914-1.302
	c6.637,0,8.822,2.227,8.822,5.713c0,1.05-0.715,11.552-0.715,15.752h-8.065c0.027-0.248,0.053-0.496,0.077-0.746L99.107,32.285z
	 M99.519,26.146c0.038-0.724,0.075-1.446,0.113-2.167c-1.554,1.092-6.385,1.26-6.385,3.738c0,1.303,1.176,1.681,2.311,1.681
	c0.756,0,3.502-0.231,3.94-2.972L99.519,26.146z M51.601,30.783h-0.084c-1.89,2.059-4.243,3.066-7.183,3.066
	c-5.545,0-8.906-4.284-8.906-9.577c0-6.049,3.319-12.392,12.603-12.392c1.386,0,2.73,0.125,4.075,0.293
	c0.126-2.268,0.168-4.536,0.21-6.847h8.275c-0.336,4.368-0.714,8.485-0.966,12.938c-0.294,4.494-0.546,9.199-0.546,15.08h-7.604
	L51.601,30.783z M49.71,17.383c-4.243,0-6.301,3.109-6.301,6.428c0,2.269,1.218,4.326,3.739,4.326c4.537,0,4.579-6.553,4.621-10.502
	C51.097,17.467,50.425,17.383,49.71,17.383z M78.79,12.385h8.359c-3.276,6.889-6.301,13.904-9.242,20.961H69.17
	c-2.143-7.057-4.621-13.988-7.057-20.961h8.233l3.612,13.316h0.084L78.79,12.385z M118.225,15.115l0.084,0.084
	c1.974-2.479,4.62-3.318,7.855-3.318c4.116,0,7.687,1.554,7.687,6.679c0,1.134-0.588,9.536-0.588,14.786h-8.275
	c0.252-3.654,0.631-7.309,0.631-10.963c0-2.059-0.631-3.949-3.066-3.949c-2.143,0-3.571,1.471-4.159,3.444
	c-0.714,2.227-0.882,6.974-1.05,11.468h-8.359c0.84-6.931,1.134-13.945,1.26-20.961h8.191L118.225,15.115z M154.149,18.896
	c-1.723-0.588-3.529-1.009-5.336-1.009c-3.234,0-5.293,1.891-5.293,5.168c0,3.15,1.68,4.789,4.83,4.789
	c1.766,0,3.572-0.42,5.209-1.009l-1.008,6.259c-2.059,0.504-4.158,0.756-6.258,0.756c-6.848,0-10.755-3.695-10.755-10.627
	c0-2.227,0.546-11.342,11.132-11.342c2.73,0,4.957,0.252,7.1,0.798L154.149,18.896z M163.587,24.104c0,3.276,2.73,4.452,5.504,4.452
	c2.479,0,4.998-0.713,7.35-1.386l-1.008,5.882c-2.395,0.504-4.873,0.797-7.309,0.797c-6.68,0-12.518-2.016-12.518-10.291
	c0-2.227,0.881-11.678,12.055-11.678c6.891,0,10.67,3.234,10.67,9.073c0,1.05-0.084,2.101-0.293,3.15H163.587z M170.603,20.281
	c0-2.436-1.008-3.695-3.025-3.695c-2.268,0-3.527,1.89-3.738,3.695H170.603z M196.345,30.783h-0.084
	c-1.891,2.059-4.244,3.066-7.184,3.066c-5.545,0-8.906-4.284-8.906-9.577c0-6.049,3.318-12.392,12.602-12.392
	c1.387,0,2.73,0.125,4.076,0.293c0.125-2.268,0.168-4.536,0.209-6.847h8.275c-0.336,4.368-0.713,8.485-0.965,12.938
	c-0.295,4.494-0.547,9.199-0.547,15.08h-7.604L196.345,30.783z M194.454,17.383c-4.244,0-6.301,3.109-6.301,6.428
	c0,2.269,1.217,4.326,3.738,4.326c4.537,0,4.578-6.553,4.621-10.502C195.841,17.467,195.167,17.383,194.454,17.383z"/>
<path fill="#EF7622" d="M244.237,11.447c1.715,0,3.365,0.263,4.949,0.789c1.584,0.525,2.922,1.283,4.016,2.271
	c1.094,0.989,1.898,2.145,2.418,3.466s0.777,2.743,0.777,4.265c0,1.48-0.23,2.888-0.695,4.223c-0.463,1.336-1.248,2.588-2.355,3.756
	c-1.105,1.17-2.514,2.045-4.223,2.625c-1.709,0.582-3.518,0.872-5.426,0.872c-1.758,0-3.445-0.257-5.064-0.769
	c-1.617-0.511-2.971-1.258-4.057-2.24s-1.902-2.158-2.449-3.527c-0.545-1.371-0.818-2.809-0.818-4.316s0.266-2.947,0.799-4.316
	c0.531-1.371,1.377-2.602,2.531-3.695c1.154-1.092,2.584-1.933,4.285-2.521S242.397,11.447,244.237,11.447z M244.093,17.549
	c-0.887,0-1.674,0.228-2.367,0.684c-0.691,0.457-1.213,1.125-1.566,2.003c-0.352,0.879-0.529,1.837-0.529,2.874
	c0,1.522,0.381,2.688,1.143,3.497c0.76,0.81,1.715,1.214,2.863,1.214c0.871,0,1.652-0.231,2.346-0.695
	c0.691-0.463,1.213-1.148,1.566-2.055c0.352-0.906,0.529-1.877,0.529-2.916c0-0.857-0.139-1.631-0.416-2.324
	c-0.277-0.691-0.729-1.244-1.359-1.66C245.673,17.756,244.937,17.549,244.093,17.549z M281.294,33.174
	c-1.58-0.027-2.895-0.041-3.945-0.041c-1.303,0-2.609,0.014-3.926,0.041l-0.023-2.842c-0.498,0.621-0.92,1.089-1.266,1.4
	c-0.346,0.311-0.723,0.584-1.131,0.819s-0.863,0.439-1.369,0.612c-0.504,0.173-1.086,0.308-1.742,0.404s-1.324,0.146-2.002,0.146
	c-1.094,0-2.127-0.128-3.102-0.384c-0.977-0.256-1.834-0.688-2.574-1.297s-1.244-1.301-1.514-2.076
	c-0.27-0.773-0.404-1.673-0.404-2.697c0-0.248,0.02-0.636,0.063-1.162l0.33-4.711c0.098-1.729,0.188-3.645,0.27-5.748
	c0.057-1.287,0.084-2.504,0.084-3.652c1.715,0.028,3.176,0.041,4.379,0.041c1.217,0,2.559-0.013,4.025-0.041l-0.643,7.906
	c-0.098,1.204-0.15,2.023-0.156,2.459c-0.008,0.437-0.012,0.73-0.012,0.883c0,1.453,0.295,2.436,0.885,2.947
	s1.293,0.768,2.111,0.768c0.334,0,0.666-0.049,1-0.146c0.332-0.096,0.65-0.234,0.957-0.414c0.264-0.166,0.506-0.373,0.729-0.623
	c0.234-0.262,0.443-0.58,0.623-0.955c0.223-0.455,0.389-0.947,0.5-1.473c0.152-0.732,0.27-1.66,0.354-2.781
	c0.055-0.815,0.129-2.227,0.223-4.232l0.162-4.338c1.783,0.028,3.248,0.041,4.395,0.041c1.285,0,2.578-0.013,3.877-0.041
	c-0.316,3.515-0.564,6.855-0.744,10.023S281.39,28.899,281.294,33.174z M231.899,11.881l-7.98,0.105l-5.184,13.18l-3.537-13.18
	h-8.417l7.363,21.604l-4.881,9.543h8.726l13.91-30.951"/>
</svg>
