<?xml version="1.0" encoding="utf-8"?>
<!-- Generator: Adobe Illustrator 16.0.0, SVG Export Plug-In . SVG Version: 6.00 Build 0)  -->
<!DOCTYPE svg PUBLIC "-//W3C//DTD SVG 1.1//EN" "http://www.w3.org/Graphics/SVG/1.1/DTD/svg11.dtd">
<svg version="1.1" id="Layer_3" xmlns="http://www.w3.org/2000/svg" xmlns:xlink="http://www.w3.org/1999/xlink" x="0px" y="0px"
	 width="282.334px" height="56px" viewBox="0 0 282.334 56" enable-background="new 0 0 282.334 56" xml:space="preserve">
<path fill="#F16529" d="M218.396,8.162c-0.463,4.705-1.387,20.667-1.513,28.019h-8.359c0.798-9.326,1.26-18.651,1.513-28.019
	H218.396z"/>
<path fill="#F16529" d="M219.612,36.181c0.714-6.344,1.008-12.602,1.092-20.962h8.401c-0.714,6.974-0.756,13.989-0.756,20.962
	H219.612z M220.914,13.086l0.084-4.957h8.149l-0.21,4.957H220.914z"/>
<path fill="#F16529" d="M230.153,21.648l0.294-5.503h2.898v-2.395c0-3.612,1.765-5.923,7.016-5.923c1.974,0,3.99,0.294,5.881,0.84
	l0.252,5.378c-1.177-0.42-2.395-0.715-3.655-0.715c-1.68,0-2.352,0.756-2.31,2.814h4.704l-0.294,5.503h-4.326
	c-0.294,5.377-0.505,21.299-0.673,26.34h-8.233c0.462-5.041,0.673-20.963,0.967-26.34H230.153z"/>
<path fill="#F16529" d="M253.199,26.938c0,3.277,2.73,4.453,5.503,4.453c2.479,0,4.999-0.714,7.351-1.387l-1.008,5.882
	c-2.395,0.504-4.873,0.798-7.31,0.798c-6.679,0-12.518-2.016-12.518-10.291c0-2.227,0.882-11.679,12.056-11.679
	c6.89,0,10.67,3.234,10.67,9.073c0,1.051-0.084,2.101-0.294,3.15H253.199z M260.214,23.116c0-2.437-1.008-3.696-3.024-3.696
	c-2.269,0-3.528,1.89-3.738,3.696H260.214z"/>
<path fill="#407CCA" d="M27.041,14.715c-3.234,0-6.595,0.546-9.914,1.302l-0.84,5.125c2.73-1.008,5.839-1.975,8.78-1.975
	c1.134,0,2.604,0.295,2.604,1.682c0,3.695-14.325,0.965-14.325,9.829c0,0.462,0.084,6.007,7.771,6.007
	c1.134,0,3.501,0.262,6.07-1.564l-0.028,0.314c-0.024,0.249-0.05,0.498-0.077,0.746h8.065c0-4.201,0.714-14.703,0.714-15.753
	C35.862,16.941,33.678,14.715,27.041,14.715z M27.6,28.979l-0.021,0.281c-0.438,2.739-3.184,2.971-3.94,2.971
	c-1.134,0-2.311-0.377-2.311-1.68c0-2.479,4.831-2.646,6.385-3.738C27.674,27.533,27.638,28.256,27.6,28.979z M101.518,20.849
	c0,3.695-14.325,0.965-14.325,9.829c0,0.462,0.084,6.007,7.771,6.007c1.135,0,3.502,0.262,6.07-1.564l-0.028,0.314
	c-0.024,0.249-0.05,0.498-0.077,0.746h8.066c0-4.201,0.714-14.703,0.714-15.753c0-3.486-2.185-5.713-8.821-5.713
	c-3.234,0-6.596,0.546-9.914,1.302l-0.84,5.125c2.73-1.008,5.839-1.975,8.779-1.975C100.048,19.167,101.518,19.462,101.518,20.849z
	 M101.446,28.979l-0.021,0.281c-0.438,2.739-3.184,2.971-3.939,2.971c-1.135,0-2.311-0.377-2.311-1.68
	c0-2.479,4.83-2.646,6.385-3.738C101.521,27.533,101.484,28.256,101.446,28.979z M54.032,15.009
	c-1.344-0.168-2.688-0.294-4.075-0.294c-9.284,0-12.603,6.343-12.603,12.392c0,5.293,3.361,9.578,8.906,9.578
	c2.94,0,5.293-1.008,7.183-3.066h0.084l-0.126,2.563h7.604c0-5.881,0.252-10.586,0.546-15.08c0.252-4.453,0.63-8.57,0.966-12.939
	h-8.275C54.2,10.472,54.158,12.741,54.032,15.009z M49.075,30.972c-2.521,0-3.739-2.059-3.739-4.326
	c0-3.319,2.059-6.428,6.301-6.428c0.714,0,1.386,0.084,2.059,0.252C53.654,24.419,53.612,30.972,49.075,30.972z M89.076,15.219
	c-3.276,6.89-6.301,13.905-9.241,20.962h-8.738c-2.143-7.057-4.621-13.988-7.057-20.962h8.233l3.612,13.316h0.084l4.747-13.316
	H89.076z M135.778,21.394c0,1.135-0.588,9.536-0.588,14.787h-8.275c0.252-3.654,0.63-7.309,0.63-10.964
	c0-2.059-0.63-3.948-3.066-3.948c-2.143,0-3.571,1.47-4.159,3.443c-0.714,2.227-0.882,6.975-1.05,11.469h-8.359
	c0.841-6.932,1.134-13.946,1.261-20.962h8.191l-0.211,2.73l0.084,0.084c1.975-2.478,4.621-3.318,7.855-3.318
	C132.208,14.715,135.778,16.269,135.778,21.394z M150.278,30.678c1.765,0,3.571-0.42,5.209-1.009l-1.008,6.26
	c-2.059,0.504-4.158,0.756-6.259,0.756c-6.848,0-10.755-3.696-10.755-10.628c0-2.226,0.547-11.342,11.133-11.342
	c2.73,0,4.957,0.252,7.1,0.798l0.378,6.217c-1.723-0.588-3.529-1.008-5.335-1.008c-3.235,0-5.293,1.891-5.293,5.167
	C145.448,29.04,147.128,30.678,150.278,30.678z M180.259,23.788c0-5.839-3.78-9.073-10.67-9.073
	c-11.174,0-12.056,9.452-12.056,11.679c0,8.275,5.839,10.291,12.518,10.291c2.437,0,4.915-0.294,7.31-0.798l1.008-5.882
	c-2.352,0.673-4.872,1.387-7.351,1.387c-2.772,0-5.503-1.176-5.503-4.453h14.45C180.175,25.889,180.259,24.839,180.259,23.788z
	 M165.767,23.116c0.21-1.807,1.47-3.696,3.738-3.696c2.017,0,3.024,1.26,3.024,3.696H165.767z M207.261,8.162h-8.275
	c-0.042,2.31-0.084,4.58-0.21,6.847c-1.345-0.168-2.688-0.294-4.075-0.294c-9.283,0-12.602,6.343-12.602,12.392
	c0,5.293,3.36,9.578,8.905,9.578c2.94,0,5.293-1.008,7.184-3.066h0.084l-0.126,2.563h7.604c0-5.881,0.252-10.586,0.546-15.08
	C206.547,16.647,206.925,12.53,207.261,8.162z M193.818,30.972c-2.521,0-3.738-2.059-3.738-4.326c0-3.319,2.058-6.428,6.301-6.428
	c0.714,0,1.387,0.084,2.059,0.252C198.397,24.419,198.355,30.972,193.818,30.972z M69.988,42.115c-0.888,0-1.571,0.372-2.003,1.031
	h-0.024l-0.072-0.899h-1.295c0.024,0.552,0.048,1.176,0.048,1.943v6.272h1.475V47.44h0.024c0.3,0.468,0.912,0.779,1.643,0.779
	c1.332,0,2.662-1.02,2.662-3.13C72.446,43.267,71.332,42.115,69.988,42.115z M69.46,47.08c-0.624,0-1.151-0.432-1.295-1.031
	c-0.036-0.132-0.048-0.264-0.048-0.407v-0.899c0-0.12,0.024-0.252,0.06-0.372c0.144-0.647,0.708-1.092,1.319-1.092
	c0.947,0,1.451,0.84,1.451,1.871C70.948,46.301,70.396,47.08,69.46,47.08z M113.728,44.574c0-1.271-0.54-2.459-2.41-2.459
	c-0.924,0-1.68,0.252-2.111,0.516l0.287,0.96c0.396-0.252,0.996-0.433,1.572-0.433c1.031,0,1.188,0.636,1.188,1.02v0.097
	c-2.16-0.013-3.467,0.731-3.467,2.206c0,0.888,0.66,1.739,1.835,1.739c0.756,0,1.367-0.323,1.728-0.779h0.035l0.096,0.647h1.332
	c-0.061-0.359-0.084-0.876-0.084-1.403V44.574z M112.288,46.037c0,0.096-0.012,0.216-0.048,0.324
	c-0.132,0.419-0.563,0.803-1.151,0.803c-0.468,0-0.84-0.264-0.84-0.839c0-0.888,0.996-1.116,2.039-1.092V46.037z M88.985,42.247
	h1.402v1.104h-1.402v2.578c0,0.708,0.191,1.08,0.756,1.08c0.252,0,0.443-0.036,0.575-0.072l0.024,1.127
	c-0.217,0.084-0.6,0.145-1.068,0.145c-0.539,0-0.995-0.18-1.271-0.479c-0.311-0.336-0.455-0.864-0.455-1.632v-2.746h-0.84v-1.104
	h0.84v-1.319l1.439-0.348V42.247z M78.951,44.646v3.442h-1.476v-3.274c0-0.852-0.312-1.487-1.127-1.487
	c-0.576,0-0.983,0.384-1.139,0.828c-0.049,0.12-0.061,0.275-0.061,0.443v3.49h-1.487v-8.516h1.487v3.479h0.023
	c0.18-0.276,0.42-0.504,0.732-0.672c0.287-0.168,0.635-0.264,1.008-0.264C77.907,42.115,78.951,42.774,78.951,44.646z
	 M107.956,42.115c0.145,0,0.229,0.012,0.348,0.036v1.391c-0.119-0.023-0.252-0.048-0.432-0.048c-0.707,0-1.188,0.456-1.318,1.115
	c-0.025,0.133-0.049,0.288-0.049,0.456v3.022h-1.475V44.13c0-0.791-0.012-1.355-0.049-1.883h1.283l0.049,1.115h0.048
	C106.649,42.535,107.333,42.115,107.956,42.115z M94.085,42.115c-1.764,0-3.022,1.176-3.022,3.094c0,1.871,1.271,3.011,2.927,3.011
	c1.486,0,2.998-0.959,2.998-3.106C96.987,43.339,95.823,42.115,94.085,42.115z M94.036,47.152c-0.898,0-1.451-0.852-1.451-1.979
	c0-0.972,0.42-1.979,1.464-1.979c1.007,0,1.415,1.044,1.415,1.955C95.464,46.325,94.876,47.152,94.036,47.152z M83.177,42.115
	c-1.764,0-3.022,1.176-3.022,3.094c0,1.871,1.271,3.011,2.927,3.011c1.486,0,2.998-0.959,2.998-3.106
	C86.079,43.339,84.915,42.115,83.177,42.115z M83.128,47.152c-0.898,0-1.451-0.852-1.451-1.979c0-0.972,0.42-1.979,1.464-1.979
	c1.007,0,1.415,1.044,1.415,1.955C84.556,46.325,83.968,47.152,83.128,47.152z M102.196,43.026h-0.024
	c-0.276-0.479-0.804-0.911-1.69-0.911c-1.404,0-2.65,1.163-2.65,3.082c0,1.655,1.031,2.854,2.482,2.854
	c0.768,0,1.367-0.348,1.703-0.863h0.023v0.504c0,1.259-0.72,1.763-1.68,1.763c-0.707,0-1.33-0.228-1.702-0.443l-0.324,1.115
	c0.504,0.312,1.296,0.468,2.039,0.468c0.804,0,1.644-0.168,2.255-0.708c0.611-0.552,0.863-1.427,0.863-2.65v-3.311
	c0-0.803,0.023-1.283,0.048-1.679h-1.283L102.196,43.026z M102.017,45.533c0,0.168-0.024,0.372-0.061,0.527
	c-0.168,0.528-0.647,0.888-1.199,0.888c-0.924,0-1.428-0.804-1.428-1.799c0-1.188,0.612-1.907,1.439-1.907
	c0.624,0,1.043,0.408,1.199,0.948c0.036,0.119,0.049,0.264,0.049,0.396V45.533z M139.108,47.272c0,0.54-0.359,0.947-0.911,0.947
	c-0.54,0-0.912-0.407-0.912-0.947c0-0.552,0.384-0.947,0.912-0.947C138.736,46.325,139.108,46.709,139.108,47.272z M198.374,40.616
	c0,0.443-0.323,0.791-0.839,0.791c-0.492,0-0.815-0.348-0.815-0.791c0-0.456,0.335-0.804,0.827-0.804
	C198.051,39.813,198.362,40.16,198.374,40.616z M208.371,42.247h1.403v1.104h-1.403v2.578c0,0.708,0.192,1.08,0.756,1.08
	c0.252,0,0.443-0.036,0.575-0.072l0.024,1.127c-0.216,0.084-0.6,0.145-1.067,0.145c-0.54,0-0.995-0.18-1.271-0.479
	c-0.312-0.336-0.456-0.864-0.456-1.632v-2.746h-0.839v-1.104h0.839v-1.319l1.439-0.348V42.247z M205.165,44.622v3.466h-1.476V44.79
	c0-0.84-0.312-1.476-1.115-1.476c-0.588,0-0.995,0.42-1.151,0.863c-0.048,0.132-0.061,0.313-0.061,0.48v3.43h-1.486v-4.102
	c0-0.672-0.013-1.235-0.049-1.739h1.296l0.071,0.876h0.036c0.252-0.456,0.888-1.008,1.859-1.008
	C204.109,42.115,205.165,42.774,205.165,44.622z M196.804,42.247h1.486v5.841h-1.486V42.247z M118.637,42.115
	c-0.888,0-1.571,0.372-2.003,1.031h-0.023l-0.072-0.899h-1.295c0.023,0.552,0.047,1.176,0.047,1.943v6.272h1.476V47.44h0.024
	c0.3,0.468,0.911,0.779,1.643,0.779c1.332,0,2.662-1.02,2.662-3.13C121.095,43.267,119.979,42.115,118.637,42.115z M118.108,47.08
	c-0.623,0-1.15-0.432-1.295-1.031c-0.035-0.132-0.048-0.264-0.048-0.407v-0.899c0-0.12,0.024-0.252,0.06-0.372
	c0.145-0.647,0.708-1.092,1.32-1.092c0.947,0,1.451,0.84,1.451,1.871C119.597,46.301,119.044,47.08,118.108,47.08z M212.463,40.616
	c0,0.443-0.323,0.791-0.839,0.791c-0.492,0-0.815-0.348-0.815-0.791c0-0.456,0.335-0.804,0.827-0.804
	C212.14,39.813,212.451,40.16,212.463,40.616z M224.883,42.247l-0.061,0.779h-0.023c-0.276-0.479-0.804-0.911-1.691-0.911
	c-1.403,0-2.65,1.163-2.65,3.082c0,1.655,1.031,2.854,2.482,2.854c0.768,0,1.367-0.348,1.703-0.863h0.024v0.504
	c0,1.259-0.72,1.763-1.68,1.763c-0.707,0-1.331-0.228-1.703-0.443l-0.323,1.115c0.503,0.312,1.295,0.468,2.038,0.468
	c0.804,0,1.644-0.168,2.255-0.708c0.612-0.552,0.864-1.427,0.864-2.65v-3.311c0-0.803,0.023-1.283,0.048-1.679H224.883z
	 M224.643,45.533c0,0.168-0.024,0.372-0.06,0.527c-0.168,0.528-0.648,0.888-1.2,0.888c-0.923,0-1.427-0.804-1.427-1.799
	c0-1.188,0.611-1.907,1.439-1.907c0.623,0,1.043,0.408,1.199,0.948c0.036,0.119,0.048,0.264,0.048,0.396V45.533z M219.254,44.622
	v3.466h-1.476V44.79c0-0.84-0.312-1.476-1.115-1.476c-0.588,0-0.996,0.42-1.151,0.863c-0.048,0.132-0.061,0.313-0.061,0.48v3.43
	h-1.486v-4.102c0-0.672-0.013-1.235-0.049-1.739h1.296l0.072,0.876h0.035c0.252-0.456,0.888-1.008,1.859-1.008
	C218.198,42.115,219.254,42.774,219.254,44.622z M188.858,42.115c-0.888,0-1.571,0.372-2.003,1.031h-0.024l-0.071-0.899h-1.296
	c0.024,0.552,0.049,1.176,0.049,1.943v6.272h1.475V47.44h0.024c0.3,0.468,0.911,0.779,1.643,0.779c1.331,0,2.663-1.02,2.663-3.13
	C191.317,43.267,190.202,42.115,188.858,42.115z M188.331,47.08c-0.624,0-1.151-0.432-1.296-1.031
	c-0.036-0.132-0.048-0.264-0.048-0.407v-0.899c0-0.12,0.024-0.252,0.061-0.372c0.144-0.647,0.707-1.092,1.318-1.092
	c0.948,0,1.452,0.84,1.452,1.871C189.818,46.301,189.267,47.08,188.331,47.08z M210.893,42.247h1.486v5.841h-1.486V42.247z
	 M195.458,42.115c0.145,0,0.229,0.012,0.348,0.036v1.391c-0.119-0.023-0.252-0.048-0.432-0.048c-0.707,0-1.188,0.456-1.319,1.115
	c-0.023,0.133-0.048,0.288-0.048,0.456v3.022h-1.475V44.13c0-0.791-0.013-1.355-0.049-1.883h1.284l0.048,1.115h0.048
	C194.151,42.535,194.835,42.115,195.458,42.115z M148.166,39.572h-1.476v3.311h-0.023c-0.264-0.432-0.84-0.768-1.644-0.768
	c-1.403,0-2.626,1.163-2.614,3.118c0,1.799,1.104,2.986,2.494,2.986c0.852,0,1.56-0.407,1.907-1.056h0.024l0.06,0.924h1.319
	c-0.024-0.396-0.048-1.043-0.048-1.644V39.572z M146.69,45.558c0,0.155-0.012,0.3-0.048,0.432c-0.144,0.636-0.672,1.043-1.271,1.043
	c-0.936,0-1.463-0.779-1.463-1.847c0-1.092,0.527-1.931,1.476-1.931c0.671,0,1.139,0.468,1.271,1.043
	c0.024,0.12,0.036,0.264,0.036,0.384V45.558z M152.235,42.115c-1.871,0-2.854,1.523-2.854,3.143c0,1.787,1.115,2.95,3.01,2.95
	c0.84,0,1.535-0.156,2.039-0.36l-0.216-1.02c-0.443,0.168-0.936,0.265-1.619,0.265c-0.936,0-1.763-0.456-1.799-1.512h3.91
	c0.023-0.132,0.048-0.348,0.048-0.623C154.754,43.674,154.13,42.115,152.235,42.115z M150.796,44.55
	c0.06-0.6,0.443-1.427,1.355-1.427c0.983,0,1.223,0.887,1.211,1.427H150.796z M181.84,47.272c0,0.54-0.359,0.947-0.911,0.947
	c-0.54,0-0.912-0.407-0.912-0.947c0-0.552,0.384-0.947,0.912-0.947C181.468,46.325,181.84,46.709,181.84,47.272z M132.544,42.247
	h1.583l-1.463,3.981c-0.804,2.184-1.343,3.154-2.039,3.754c-0.575,0.517-1.175,0.708-1.547,0.756l-0.336-1.247
	c0.252-0.06,0.563-0.192,0.863-0.408c0.276-0.18,0.6-0.527,0.804-0.923c0.061-0.108,0.096-0.192,0.096-0.264
	c0-0.061-0.012-0.145-0.084-0.288l-2.135-5.361h1.619l1.056,3.13c0.12,0.36,0.239,0.804,0.323,1.14h0.037
	c0.096-0.336,0.203-0.768,0.311-1.151L132.544,42.247z M127.599,44.646v3.442h-1.475v-3.274c0-0.852-0.313-1.487-1.127-1.487
	c-0.576,0-0.984,0.384-1.14,0.828c-0.048,0.12-0.06,0.275-0.06,0.443v3.49h-1.488v-8.516h1.488v3.479h0.023
	c0.18-0.276,0.42-0.504,0.731-0.672c0.288-0.168,0.636-0.264,1.008-0.264C126.556,42.115,127.599,42.774,127.599,44.646z
	 M159.734,46.385c0,1.056-0.827,1.823-2.374,1.823c-0.708,0-1.344-0.168-1.775-0.408l0.288-1.067c0.336,0.204,0.972,0.42,1.499,0.42
	c0.647,0,0.936-0.264,0.936-0.647c0-0.396-0.24-0.6-0.96-0.852c-1.139-0.396-1.618-1.02-1.606-1.703
	c0-1.031,0.852-1.835,2.207-1.835c0.647,0,1.211,0.168,1.547,0.348l-0.288,1.044c-0.252-0.145-0.72-0.336-1.235-0.336
	c-0.527,0-0.815,0.252-0.815,0.611c0,0.372,0.275,0.552,1.02,0.815C159.231,44.981,159.723,45.521,159.734,46.385z M168.015,43.026
	h-0.023c-0.276-0.479-0.804-0.911-1.691-0.911c-1.403,0-2.65,1.163-2.65,3.082c0,1.655,1.031,2.854,2.482,2.854
	c0.768,0,1.367-0.348,1.703-0.863h0.024v0.504c0,1.259-0.72,1.763-1.68,1.763c-0.707,0-1.331-0.228-1.703-0.443l-0.323,1.115
	c0.503,0.312,1.295,0.468,2.038,0.468c0.804,0,1.644-0.168,2.255-0.708c0.612-0.552,0.864-1.427,0.864-2.65v-3.311
	c0-0.803,0.023-1.283,0.048-1.679h-1.283L168.015,43.026z M167.835,45.533c0,0.168-0.024,0.372-0.06,0.527
	c-0.168,0.528-0.648,0.888-1.2,0.888c-0.923,0-1.427-0.804-1.427-1.799c0-1.188,0.611-1.907,1.439-1.907
	c0.623,0,1.043,0.408,1.199,0.948c0.036,0.119,0.048,0.264,0.048,0.396V45.533z M176.139,44.622v3.466h-1.476V44.79
	c0-0.84-0.312-1.476-1.115-1.476c-0.588,0-0.996,0.42-1.151,0.863c-0.048,0.132-0.061,0.313-0.061,0.48v3.43h-1.486v-4.102
	c0-0.672-0.013-1.235-0.049-1.739h1.296l0.072,0.876h0.035c0.252-0.456,0.888-1.008,1.859-1.008
	C175.083,42.115,176.139,42.774,176.139,44.622z M162.52,40.616c0,0.443-0.323,0.791-0.839,0.791c-0.492,0-0.815-0.348-0.815-0.791
	c0-0.456,0.335-0.804,0.827-0.804C162.196,39.813,162.508,40.16,162.52,40.616z M160.949,42.247h1.486v5.841h-1.486V42.247z"/>
</svg>
